<svg width="256" height="256" viewBox="0 0 256 256" fill="none" xmlns="http://www.w3.org/2000/svg">
  <defs>
    <linearGradient id="starSquareDarkBg" x1="26" y1="18" x2="228" y2="236" gradientUnits="userSpaceOnUse">
      <stop stop-color="#111827"/>
      <stop offset="1" stop-color="#020617"/>
    </linearGradient>
    <linearGradient id="starSquareDarkCore" x1="72" y1="56" x2="184" y2="182" gradientUnits="userSpaceOnUse">
      <stop stop-color="#38BDF8"/>
      <stop offset="1" stop-color="#2DD4BF"/>
    </linearGradient>
  </defs>
  <rect x="16" y="16" width="224" height="224" rx="56" fill="url(#starSquareDarkBg)"/>
  <rect x="16.75" y="16.75" width="222.5" height="222.5" rx="55.25" stroke="#38BDF8" stroke-opacity="0.28" stroke-width="1.5"/>
  <path d="M128 58L143.45 98.55L184 114L143.45 129.45L128 170L112.55 129.45L72 114L112.55 98.55L128 58Z" fill="url(#starSquareDarkCore)"/>
  <path d="M56 82C75 66 101 56 128 56C140 56 151 58 162 62" stroke="#38BDF8" stroke-opacity="0.4" stroke-width="7" stroke-linecap="round"/>
  <path d="M198 146C179 180 141 202 101 202" stroke="#2DD4BF" stroke-opacity="0.38" stroke-width="7" stroke-linecap="round"/>
  <circle cx="178" cy="80" r="7" fill="#67E8F9" fill-opacity="0.9"/>
</svg>
